<svg width="39" height="40" viewBox="0 0 39 40" fill="none" xmlns="http://www.w3.org/2000/svg">
<path d="M12.48 21.996C11.8341 21.1368 10.6092 20.9601 9.75 21.606C8.89078 22.2519 8.71406 23.4768 9.36 24.336L11.6817 27.4316C11.9742 27.8216 11.9316 28.364 11.5903 28.7052L10.8103 29.4852C10.402 29.8935 9.73781 29.863 9.37219 29.4182L3.9 22.8491V13.806C3.9 12.7274 3.02859 11.856 1.95 11.856C0.871406 11.856 0 12.7274 0 13.806V27.1148C0 27.779 0.225469 28.4249 0.639844 28.9429L6.98344 37.1268C7.28813 37.5229 7.49531 37.9738 7.61719 38.4491C7.72688 38.8696 8.11078 39.156 8.54953 39.156H16.575C17.1112 39.156 17.55 38.7173 17.55 38.181V31.356C17.55 29.668 17.0016 28.0288 15.99 26.676L12.48 21.996ZM37.05 11.856C35.9714 11.856 35.1 12.7274 35.1 13.806V22.8491L29.6278 29.4182C29.2622 29.8569 28.5919 29.8874 28.1897 29.4852L27.4097 28.7052C27.0684 28.364 27.0258 27.8216 27.3183 27.4316L29.64 24.336C30.2859 23.4768 30.1092 22.2519 29.25 21.606C28.3908 20.9601 27.1659 21.1368 26.52 21.996L23.01 26.676C21.9984 28.0288 21.45 29.668 21.45 31.356V38.181C21.45 38.7173 21.8888 39.156 22.425 39.156H30.4505C30.8831 39.156 31.2731 38.8696 31.3828 38.4491C31.5047 37.9738 31.7119 37.5229 32.0166 37.1268L38.3602 28.9429C38.7745 28.4249 39 27.779 39 27.1148V13.806C39 12.7274 38.1286 11.856 37.05 11.856Z" fill="#EFF1F3"/>
<path d="M29.64 0H23.14C22.4504 0 21.7891 0.273928 21.3015 0.761522C20.8139 1.24912 20.54 1.91044 20.54 2.6V9.1C20.54 9.78956 20.8139 10.4509 21.3015 10.9385C21.7891 11.4261 22.4504 11.7 23.14 11.7H29.64C30.3296 11.7 30.9909 11.4261 31.4785 10.9385C31.9661 10.4509 32.24 9.78956 32.24 9.1V2.6C32.24 1.91044 31.9661 1.24912 31.4785 0.761522C30.9909 0.273928 30.3296 0 29.64 0ZM26.39 9.75C25.3557 9.75 24.3637 9.33911 23.6323 8.60772C22.9009 7.87632 22.49 6.88434 22.49 5.85C22.49 4.81566 22.9009 3.82368 23.6323 3.09228C24.3637 2.36089 25.3557 1.95 26.39 1.95C27.4243 1.95 28.4163 2.36089 29.1477 3.09228C29.8791 3.82368 30.29 4.81566 30.29 5.85C30.29 6.88434 29.8791 7.87632 29.1477 8.60772C28.4163 9.33911 27.4243 9.75 26.39 9.75ZM26.39 7.8C25.8728 7.8 25.3768 7.59455 25.0111 7.22886C24.6454 6.86316 24.44 6.36717 24.44 5.85C24.44 5.33283 24.6454 4.83684 25.0111 4.47114C25.3768 4.10545 25.8728 3.9 26.39 3.9C26.9072 3.9 27.4032 4.10545 27.7689 4.47114C28.1346 4.83684 28.34 5.33283 28.34 5.85C28.34 6.36717 28.1346 6.86316 27.7689 7.22886C27.4032 7.59455 26.9072 7.8 26.39 7.8ZM19.24 13V0H8.84C8.15044 0 7.48912 0.273928 7.00152 0.761522C6.51393 1.24912 6.24 1.91044 6.24 2.6V15.6C6.24 16.2896 6.51393 16.9509 7.00152 17.4385C7.48912 17.9261 8.15044 18.2 8.84 18.2H29.64C30.3296 18.2 30.9909 17.9261 31.4785 17.4385C31.9661 16.9509 32.24 16.2896 32.24 15.6V13H19.24ZM16.64 9.1H8.84V2.6H16.64V9.1Z" fill="#EFF1F3"/>
</svg>
