<svg width="63" height="63" viewBox="0 0 63 63" fill="none" xmlns="http://www.w3.org/2000/svg">
<path d="M20 35.25C18.9648 33.873 17.002 33.5898 15.625 34.625C14.248 35.6602 13.9648 37.623 15 39L18.7207 43.9609C19.1895 44.5859 19.1211 45.4551 18.5742 46.002L17.3242 47.252C16.6699 47.9062 15.6055 47.8574 15.0195 47.1445L6.25 36.6172V22.125C6.25 20.3965 4.85352 19 3.125 19C1.39648 19 0 20.3965 0 22.125V43.4531C0 44.5176 0.361328 45.5527 1.02539 46.3828L11.1914 59.498C11.6797 60.1328 12.0117 60.8555 12.207 61.6172C12.3828 62.291 12.998 62.75 13.7012 62.75H26.5625C27.4219 62.75 28.125 62.0469 28.125 61.1875V50.25C28.125 47.5449 27.2461 44.918 25.625 42.75L20 35.25V35.25ZM59.375 19C57.6465 19 56.25 20.3965 56.25 22.125V36.6172L47.4805 47.1445C46.8945 47.8477 45.8203 47.8965 45.1758 47.252L43.9258 46.002C43.3789 45.4551 43.3105 44.5859 43.7793 43.9609L47.5 39C48.5352 37.623 48.252 35.6602 46.875 34.625C45.498 33.5898 43.5352 33.873 42.5 35.25L36.875 42.75C35.2539 44.918 34.375 47.5449 34.375 50.25V61.1875C34.375 62.0469 35.0781 62.75 35.9375 62.75H48.7988C49.4922 62.75 50.1172 62.291 50.293 61.6172C50.4883 60.8555 50.8203 60.1328 51.3086 59.498L61.4746 46.3828C62.1387 45.5527 62.5 44.5176 62.5 43.4531V22.125C62.5 20.3965 61.1035 19 59.375 19Z" fill="black"/>
<path d="M47.5 0H37.0833C35.9783 0 34.9185 0.438987 34.1371 1.22039C33.3557 2.00179 32.9167 3.0616 32.9167 4.16667V14.5833C32.9167 15.6884 33.3557 16.7482 34.1371 17.5296C34.9185 18.311 35.9783 18.75 37.0833 18.75H47.5C48.6051 18.75 49.6649 18.311 50.4463 17.5296C51.2277 16.7482 51.6667 15.6884 51.6667 14.5833V4.16667C51.6667 3.0616 51.2277 2.00179 50.4463 1.22039C49.6649 0.438987 48.6051 0 47.5 0V0ZM42.2917 15.625C40.6341 15.625 39.0443 14.9665 37.8722 13.7944C36.7001 12.6223 36.0417 11.0326 36.0417 9.375C36.0417 7.7174 36.7001 6.12768 37.8722 4.95558C39.0443 3.78348 40.6341 3.125 42.2917 3.125C43.9493 3.125 45.539 3.78348 46.7111 4.95558C47.8832 6.12768 48.5417 7.7174 48.5417 9.375C48.5417 11.0326 47.8832 12.6223 46.7111 13.7944C45.539 14.9665 43.9493 15.625 42.2917 15.625V15.625ZM42.2917 12.5C41.4629 12.5 40.668 12.1708 40.082 11.5847C39.4959 10.9987 39.1667 10.2038 39.1667 9.375C39.1667 8.5462 39.4959 7.75134 40.082 7.16529C40.668 6.57924 41.4629 6.25 42.2917 6.25C43.1205 6.25 43.9153 6.57924 44.5014 7.16529C45.0874 7.75134 45.4167 8.5462 45.4167 9.375C45.4167 10.2038 45.0874 10.9987 44.5014 11.5847C43.9153 12.1708 43.1205 12.5 42.2917 12.5ZM30.8333 20.8333V0H14.1667C13.0616 0 12.0018 0.438987 11.2204 1.22039C10.439 2.00179 10 3.0616 10 4.16667V25C10 26.1051 10.439 27.1649 11.2204 27.9463C12.0018 28.7277 13.0616 29.1667 14.1667 29.1667H47.5C48.6051 29.1667 49.6649 28.7277 50.4463 27.9463C51.2277 27.1649 51.6667 26.1051 51.6667 25V20.8333H30.8333ZM26.6667 14.5833H14.1667V4.16667H26.6667V14.5833Z" fill="black"/>
</svg>
